<svg xmlns="http://www.w3.org/2000/svg" viewBox="0 0 512 512">
  <defs>
    <linearGradient id="bg" x1="0" y1="0" x2="1" y2="1">
      <stop offset="0" stop-color="#081f38"/>
      <stop offset="1" stop-color="#1d6fa5"/>
    </linearGradient>
  </defs>
  <rect width="512" height="512" rx="112" fill="url(#bg)"/>
  <circle cx="373" cy="139" r="66" fill="#66c7e8"/>
  <circle cx="373" cy="139" r="47" fill="none" stroke="#fff" stroke-width="13" opacity=".92"/>
  <path d="M375 101v75M397 114c-11-8-40-10-44 7-7 27 47 13 42 38-4 20-36 17-48 7" fill="none" stroke="#fff" stroke-width="13" stroke-linecap="round"/>
  <path d="M118 167h216c32 0 58 26 58 58v151c0 32-26 58-58 58H118c-32 0-58-26-58-58V225c0-32 26-58 58-58Z" fill="#fff"/>
  <path d="M80 226h274c24 0 44 20 44 44v90c0 24-20 44-44 44H80" fill="#e8f2fa"/>
  <rect x="281" y="269" width="117" height="93" rx="31" fill="#081f38"/>
  <circle cx="326" cy="316" r="13" fill="#66c7e8"/>
  <path d="M119 219h138" stroke="#1d6fa5" stroke-width="18" stroke-linecap="round"/>
  <path d="M121 302h72M121 343h104" stroke="#1d6fa5" stroke-width="17" stroke-linecap="round" opacity=".9"/>
</svg>
